<svg width="24" height="24" viewBox="0 0 24 24" fill="none" xmlns="http://www.w3.org/2000/svg">
	<path d="M23.9229 12.0021C23.9229 14.3609 23.2234 16.6666 21.9128 18.6277C20.6023 20.5889 18.7396 22.1173 16.5604 23.0198C14.3811 23.9222 11.9832 24.1581 9.66984 23.6977C7.3565 23.2372 5.23168 22.101 3.56411 20.4329C1.89654 18.7647 0.761138 16.6395 0.301494 14.326C-0.15815 12.0125 0.0786163 9.6146 0.981848 7.43567C1.88508 5.25674 3.4142 3.39461 5.37582 2.08479C7.33744 0.774969 9.64343 0.0763014 12.0022 0.0771492C13.568 0.0771491 15.1184 0.385629 16.565 0.984968C18.0116 1.58431 19.3259 2.46276 20.4329 3.57016C21.5399 4.67755 22.4179 5.99218 23.0167 7.43896C23.6155 8.88575 23.9234 10.4363 23.9229 12.0021Z" fill="#03CF5D"/>
	<path d="M23.8328 12.0021C23.8328 18.5862 18.5947 23.9228 12.1393 23.9228C5.68381 23.9228 0.428589 18.5862 0.428589 12.0021C0.428589 5.4181 5.67953 0.0771484 12.1393 0.0771484C18.599 0.0771484 23.8328 5.41382 23.8328 12.0021Z" fill="#03CF5D"/>
	<path d="M12.0021 24.0043C9.62835 24.0043 7.30786 23.3004 5.33411 21.9816C3.36037 20.6628 1.82203 18.7883 0.913614 16.5952C0.00520043 14.4021 -0.232482 11.9888 0.230623 9.66065C0.693728 7.33246 1.83682 5.19388 3.51535 3.51535C5.19388 1.83682 7.33246 0.693728 9.66065 0.230623C11.9888 -0.232482 14.4021 0.00520043 16.5952 0.913614C18.7883 1.82203 20.6628 3.36037 21.9816 5.33411C23.3004 7.30786 24.0043 9.62835 24.0043 12.0021C24.0043 15.1853 22.7398 18.2381 20.4889 20.4889C18.2381 22.7398 15.1853 24.0043 12.0021 24.0043ZM12.0021 1.28595C9.88268 1.28595 7.81082 1.91444 6.04855 3.09195C4.28628 4.26946 2.91275 5.94311 2.10167 7.90124C1.29059 9.85937 1.07837 12.014 1.49186 14.0928C1.90534 16.1715 2.92596 18.081 4.42465 19.5796C5.92334 21.0783 7.83278 22.0989 9.91152 22.5124C11.9903 22.9259 14.1449 22.7137 16.1031 21.9026C18.0612 21.0915 19.7348 19.718 20.9123 17.9557C22.0898 16.1935 22.7183 14.1216 22.7183 12.0021C22.7183 9.16004 21.5893 6.43433 19.5796 4.42465C17.57 2.41497 14.8443 1.28595 12.0021 1.28595Z" fill="#03CF5D"/>
	<path d="M10.6648 16.9059C10.4932 16.905 10.3287 16.8374 10.2061 16.7173L6.66976 13.1809C6.61009 13.121 6.56281 13.0499 6.53063 12.9716C6.49844 12.8934 6.48198 12.8096 6.48218 12.725C6.48238 12.6405 6.49924 12.5568 6.53179 12.4787C6.56434 12.4006 6.61195 12.3297 6.6719 12.2701C6.73185 12.2104 6.80296 12.1631 6.88119 12.1309C6.95941 12.0987 7.0432 12.0823 7.12778 12.0825C7.21237 12.0827 7.29608 12.0995 7.37415 12.1321C7.45222 12.1646 7.52311 12.2122 7.58278 12.2722L10.639 15.3285L16.5072 8.81301C16.5619 8.74483 16.63 8.68853 16.7072 8.64753C16.7843 8.60653 16.8691 8.58171 16.9562 8.57457C17.0433 8.56743 17.131 8.57812 17.2138 8.60601C17.2967 8.63389 17.373 8.67837 17.438 8.73673C17.5031 8.79509 17.5556 8.8661 17.5923 8.94543C17.629 9.02476 17.6491 9.11074 17.6515 9.19812C17.6538 9.28549 17.6383 9.37243 17.6059 9.45362C17.5736 9.5348 17.525 9.60853 17.4631 9.6703L11.1448 16.6916C11.0865 16.7572 11.0154 16.8101 10.9357 16.8469C10.856 16.8838 10.7697 16.9039 10.6819 16.9059H10.6648Z" fill="white"/>
</svg>